<?xml version="1.0" encoding="iso-8859-1"?>
<!-- Generator: Adobe Illustrator 19.0.0, SVG Export Plug-In . SVG Version: 6.00 Build 0)  -->
<svg version="1.1" id="Layer_1" xmlns="http://www.w3.org/2000/svg" xmlns:xlink="http://www.w3.org/1999/xlink" x="0px" y="0px"
	 viewBox="0 0 512.009 512.009" style="enable-background:new 0 0 512.009 512.009;" xml:space="preserve">
<g>
	<g>
		<g>
			<path d="M460.25,106.676h-32.232l-11.163-25.632c-3.626-14.731-17.48-46.651-24.204-55.444
				C375.22,2.835,344.488-5.479,316.903,3.622l-59.342,25.794c-3.928,1.199-10.141,1.121-15.805-0.921L176.275,4.919
				C138.339-8.752,95.466,21.307,85.675,61.135c0.247-1.002-2.103,4.933-3.195,7.653c-3.042,7.584-4.211,10.496-4.774,12.388
				l-11.106,25.5H51.759c-28.507,0-51.755,23.247-51.755,51.755v3.157c0,25.403,18.466,46.614,42.658,50.935v30.85v13.274v199.255
				c0,30.918,25.189,56.107,56.107,56.107h314.453c30.918,0,56.107-25.189,56.107-56.107V256.009v-13.274v-30.209
				c24.201-4.314,42.675-25.529,42.675-50.938v-3.157C512.005,129.923,488.757,106.676,460.25,106.676z M117.716,96.165
				c0.784-1.801,1.316-3.701,1.58-5.647c-0.211,1.552,0.037,1.083,0.113,0.911c0.604-1.577,1.403-3.593,2.586-6.543l0.084-0.21
				c1.459-3.63,2.167-5.394,2.749-6.864c1.48-3.738,1.828-4.659,2.275-6.472c4.24-17.246,23.093-30.465,34.711-26.278l65.477,23.575
				c14.648,5.282,30.663,5.482,45.483,0.593l59.342-25.795c9.032-2.883,20.648,0.259,26.647,8.094
				c2.938,3.842,15.925,34.338,16.557,38.99c0.264,1.946,0.796,3.847,1.58,5.647l4.578,10.511H113.138L117.716,96.165z
				 M426.663,224.419c-18.569-6.017-37.867-9.701-57.335-11.076h57.335V224.419z M426.367,269.678
				c-1.856,41.071-12.547,67.953-35.205,70.072c-77.715,7.24-108.435-23.983-113.169-70.221
				C324.918,250.607,379.481,250.656,426.367,269.678z M255.267,232.842c-53.255-23.046-114.813-25.648-169.938-7.785v-11.714
				h249.335C307.347,215.272,280.367,221.772,255.267,232.842z M233.999,270.167c-4.733,46.238-35.454,77.46-113.176,70.22
				c-22.651-2.118-33.341-29.001-35.197-70.072C132.511,251.294,187.074,251.245,233.999,270.167z M413.223,469.343H98.769
				c-7.354,0-13.44-6.086-13.44-13.44v-83.602c8.982,5.781,19.462,9.44,31.528,10.568c71.008,6.615,115.677-14.418,139.357-49.434
				c23.79,34.633,68.342,55.371,138.912,48.797c12.07-1.129,22.552-4.789,31.536-10.57v84.241
				C426.663,463.256,420.577,469.343,413.223,469.343z M469.338,161.588c0,4.943-4.145,9.088-9.088,9.088h-12.254h-384H51.759
				c-4.943,0-9.088-4.145-9.088-9.088v-3.157c0-4.943,4.145-9.088,9.088-9.088h28.819H414.04h46.21c4.943,0,9.088,4.145,9.088,9.088
				V161.588z"/>
			<path d="M277.329,405.343h-42.667c-11.782,0-21.333,9.551-21.333,21.333s9.551,21.333,21.333,21.333h42.667
				c11.782,0,21.333-9.551,21.333-21.333S289.111,405.343,277.329,405.343z"/>
			<path d="M119.41,91.426C119.433,91.374,119.438,91.355,119.41,91.426L119.41,91.426z"/>
			<path d="M119.41,91.426c0,0.001-0.001,0.001-0.001,0.002c-0.003,0.007-0.005,0.014-0.008,0.021
				C119.405,91.438,119.407,91.434,119.41,91.426z"/>
		</g>
	</g>
</g>
<g>
</g>
<g>
</g>
<g>
</g>
<g>
</g>
<g>
</g>
<g>
</g>
<g>
</g>
<g>
</g>
<g>
</g>
<g>
</g>
<g>
</g>
<g>
</g>
<g>
</g>
<g>
</g>
<g>
</g>
</svg>
